<?xml version="1.0" encoding="UTF-8"?>
<svg id="Layer_1" data-name="Layer 1" xmlns="http://www.w3.org/2000/svg" viewBox="0 0 250 150">
  <g>
    <path d="M70.19058,61.20215c0,1.17627-.30908,2.16699-.92676,2.97412s-1.44971,1.41992-2.49561,1.83838c-1.04639.41846-2.1875.62793-3.42285.62793h-10.25342v-21.22363h11.35938c.99609,0,1.85791.26416,2.58594.79199.72705.52832,1.28516,1.20605,1.67383,2.03271.38867.82715.58301,1.68896.58301,2.58594,0,1.01611-.25928,1.97803-.77734,2.88428-.51855.90723-1.27539,1.58936-2.27197,2.04785,1.21533.3584,2.17725,1.00635,2.88477,1.94287.70703.93701,1.06104,2.10303,1.06104,3.49756ZM57.21744,48.94629v5.35059h5.5c.4585,0,.87695-.10938,1.25537-.32861s.68262-.52783.91211-.92676c.22852-.39844.34375-.86719.34375-1.40527,0-.55762-.10498-1.03125-.31396-1.41992-.20947-.38818-.48877-.69727-.83691-.92627-.34912-.229-.74268-.34375-1.18066-.34375h-5.67969ZM66.0358,60.39502c0-.53809-.10986-1.021-.3291-1.44971-.21924-.42822-.51318-.77197-.88184-1.03125-.36865-.25879-.79199-.38867-1.27051-.38867h-6.33691v5.61963h6.12793c.49805,0,.95117-.12402,1.35986-.37354.4082-.24902.73242-.58301.97168-1.00146s.35889-.87646.35889-1.375Z" fill="#1b263b"/>
    <path d="M82.38638,66.79199c-1.67383,0-3.104-.28369-4.28955-.85205-1.18555-.56787-2.14258-1.34961-2.86963-2.34619-.72754-.99658-1.26074-2.12744-1.59912-3.39307-.33936-1.26514-.5083-2.58594-.5083-3.96094v-10.8208h4.09521v10.8208c0,.87744.09424,1.72949.28418,2.55615.18896.82715.47803,1.56934.8667,2.22705.38867.65723.91162,1.17578,1.56934,1.5542.65771.37891,1.47461.56787,2.45117.56787,1.0166,0,1.84814-.19434,2.49609-.58301.64746-.38818,1.17041-.91162,1.56934-1.56934.39844-.65723.6875-1.39941.86719-2.22705.1792-.82666.26904-1.66846.26904-2.52588v-10.8208h4.09521v10.8208c0,1.43506-.1792,2.79492-.53809,4.08057-.35889,1.28516-.90723,2.41162-1.64404,3.37793-.73779.9668-1.69434,1.72363-2.86963,2.27197-1.17627.54834-2.59082.82178-4.24512.82178Z" fill="#1b263b"/>
    <path d="M108.48257,50.979c-.13965-.13916-.39355-.32373-.76221-.55322-.36865-.229-.81738-.46338-1.34521-.70264-.52783-.23877-1.10107-.43799-1.71875-.59766-.61768-.15918-1.24561-.23926-1.8833-.23926-1.11621,0-1.95801.20361-2.52588.60986-.56787.40674-.85156.99658-.85156,1.76953,0,.5752.1792,1.03125.5376,1.36865.35889.33691.89697.62451,1.61426.8623.71777.23828,1.61426.49561,2.69043.77344,1.39453.33691,2.60547.74854,3.63184,1.23438s1.81348,1.12061,2.36182,1.90381c.54785.7832.82178,1.8291.82178,3.1377,0,1.11084-.20898,2.0625-.62744,2.85547-.41846.79346-.9917,1.44287-1.71875,1.94824-.72803.50537-1.56494.87256-2.51123,1.10059-.94678.22754-1.94824.3418-3.00439.3418s-2.1123-.10986-3.16846-.32861c-1.05664-.21924-2.06787-.5332-3.03418-.94189-.9668-.4082-1.86816-.90137-2.70508-1.47949l1.82324-3.55713c.17969.1792.49805.41357.95654.70215.4585.28906,1.0166.57861,1.67432.86719.65771.28906,1.375.5332,2.15234.73242.77686.19922,1.56396.29883,2.36133.29883,1.13574,0,1.98291-.18213,2.54102-.54688.55762-.36426.83691-.90186.83691-1.61133,0-.63477-.22412-1.13574-.67285-1.50293-.44824-.36719-1.08105-.68457-1.89795-.95264-.81738-.26758-1.78369-.55029-2.8999-.84814-1.35498-.37695-2.47607-.80371-3.36279-1.27979-.88672-.47656-1.5542-1.06689-2.00293-1.77148-.44824-.7041-.67236-1.59229-.67236-2.66455,0-1.44873.34863-2.66406,1.04639-3.64648.69727-.98193,1.63379-1.72607,2.80957-2.23242s2.48145-.75928,3.91602-.75928c.99658,0,1.93799.10938,2.8252.32861.88623.21973,1.71875.5083,2.49561.8667.77734.35889,1.47461.74756,2.09277,1.16602l-1.82373,3.34814Z" fill="#1b263b"/>
    <path d="M114.16177,66.64258v-21.22363h4.12549v21.22363h-4.12549Z" fill="#1b263b"/>
    <path d="M126.83658,53.01172v13.63086h-4.125v-21.22363h3.31836l10.94043,13.98975v-13.95996h4.0957v21.19385h-3.4082l-10.82129-13.63086Z" fill="#1b263b"/>
    <path d="M160.2565,63.02539v3.61719h-14.7373v-21.22363h14.46777v3.6167h-10.34277v5.11182h8.9082v3.34814h-8.9082v5.52979h10.6123Z" fill="#1b263b"/>
    <path d="M176.12857,50.979c-.13965-.13916-.39355-.32373-.76172-.55322-.36914-.229-.81738-.46338-1.3457-.70264-.52734-.23877-1.10059-.43799-1.71875-.59766-.61719-.15918-1.24512-.23926-1.88281-.23926-1.11621,0-1.95801.20361-2.52637.60986-.56738.40674-.85156.99658-.85156,1.76953,0,.5752.17969,1.03125.53809,1.36865.3584.33691.89648.62451,1.61426.8623.71777.23828,1.61426.49561,2.69043.77344,1.39453.33691,2.60547.74854,3.63184,1.23438s1.81348,1.12061,2.36133,1.90381.82227,1.8291.82227,3.1377c0,1.11084-.20898,2.0625-.62793,2.85547-.41797.79346-.99121,1.44287-1.71875,1.94824s-1.56445.87256-2.51074,1.10059c-.94727.22754-1.94824.3418-3.00488.3418-1.05566,0-2.1123-.10986-3.16797-.32861-1.05664-.21924-2.06836-.5332-3.03418-.94189-.9668-.4082-1.86816-.90137-2.70508-1.47949l1.82324-3.55713c.17969.1792.49805.41357.95605.70215.45898.28906,1.0166.57861,1.6748.86719.65723.28906,1.375.5332,2.15234.73242.77637.19922,1.56348.29883,2.36133.29883,1.13574,0,1.98242-.18213,2.54102-.54688.55762-.36426.83691-.90186.83691-1.61133,0-.63477-.22461-1.13574-.67285-1.50293s-1.08105-.68457-1.89844-.95264c-.81738-.26758-1.7832-.55029-2.89941-.84814-1.35547-.37695-2.47656-.80371-3.36328-1.27979-.88672-.47656-1.55371-1.06689-2.00293-1.77148-.44824-.7041-.67188-1.59229-.67188-2.66455,0-1.44873.34863-2.66406,1.0459-3.64648.69727-.98193,1.63379-1.72607,2.80957-2.23242s2.48145-.75928,3.91602-.75928c.99707,0,1.93848.10938,2.8252.32861.88672.21973,1.71875.5083,2.49609.8667.77734.35889,1.47461.74756,2.09277,1.16602l-1.82422,3.34814Z" fill="#1b263b"/>
    <path d="M194.45279,50.979c-.13965-.13916-.39355-.32373-.7627-.55322-.36816-.229-.81738-.46338-1.34473-.70264-.52832-.23877-1.10156-.43799-1.71875-.59766-.61816-.15918-1.24609-.23926-1.88379-.23926-1.11621,0-1.95801.20361-2.52539.60986-.56836.40674-.85156.99658-.85156,1.76953,0,.5752.17871,1.03125.53711,1.36865.35938.33691.89746.62451,1.61426.8623.71777.23828,1.61426.49561,2.69043.77344,1.39453.33691,2.60547.74854,3.63184,1.23438s1.81348,1.12061,2.3623,1.90381c.54785.7832.82129,1.8291.82129,3.1377,0,1.11084-.20898,2.0625-.62695,2.85547-.41895.79346-.99219,1.44287-1.71875,1.94824-.72852.50537-1.56543.87256-2.51172,1.10059-.94629.22754-1.94824.3418-3.00391.3418-1.05664,0-2.1123-.10986-3.16895-.32861-1.05664-.21924-2.06738-.5332-3.03418-.94189-.9668-.4082-1.86816-.90137-2.70508-1.47949l1.82324-3.55713c.17969.1792.49805.41357.95703.70215.45801.28906,1.0166.57861,1.67383.86719.6582.28906,1.375.5332,2.15234.73242s1.56445.29883,2.36133.29883c1.13574,0,1.9834-.18213,2.54102-.54688.55762-.36426.83691-.90186.83691-1.61133,0-.63477-.22363-1.13574-.67285-1.50293-.44824-.36719-1.08105-.68457-1.89746-.95264-.81738-.26758-1.78418-.55029-2.90039-.84814-1.35449-.37695-2.47559-.80371-3.3623-1.27979-.88672-.47656-1.55469-1.06689-2.00293-1.77148-.44824-.7041-.67285-1.59229-.67285-2.66455,0-1.44873.34863-2.66406,1.04688-3.64648.69727-.98193,1.63379-1.72607,2.80957-2.23242s2.48145-.75928,3.91602-.75928c.99609,0,1.9375.10938,2.8252.32861.88574.21973,1.71875.5083,2.49512.8667.77734.35889,1.47461.74756,2.09277,1.16602l-1.82324,3.34814Z" fill="#1b263b"/>
  </g>
  <g>
    <line x1="211.22011" y1="74.43002" x2="38.77993" y2="74.39763" fill="#1b263b"/>
    <path d="M211.22007,74.53002c-49.69054,2.13377-101.15145,1.98835-150.88531.80029-7.18494-.28173-14.36993-.44839-21.55487-.83267,42.32305-.47021,130.12847-.4537,172.44019.03238h0Z" fill="#1b263b"/>
  </g>
  <g>
    <path d="M70.48746,104.58105v-21.22363h8.96777c.91602,0,1.75342.18945,2.51074.56787.75732.37891,1.41992.89209,1.98779,1.53955s1.00635,1.36523,1.31543,2.15234c.30859.78711.46338,1.58984.46338,2.40625,0,1.0166-.19434,1.97266-.58301,2.87012-.38867.89648-.93701,1.6543-1.64404,2.27148-.70752.61816-1.53955,1.02637-2.49609,1.22559l5.20117,8.19043h-2.36133l-4.99219-7.83203h-6.27734v7.83203h-2.09229ZM72.57974,94.89648h6.93506c.83691,0,1.56445-.22949,2.18213-.6875.61768-.45898,1.0957-1.06152,1.43506-1.80859.33838-.74805.50781-1.54004.50781-2.37695,0-.85645-.19385-1.64844-.58252-2.37598s-.90723-1.31543-1.55469-1.76367c-.64795-.44922-1.37012-.67334-2.16699-.67334h-6.75586v9.68604Z" fill="#1b263b"/>
    <path d="M104.26626,102.72754v1.85352h-14.25879v-21.22363h13.98975v1.85303h-11.89746v7.65283h10.37256v1.76367h-10.37256v8.10059h12.1665Z" fill="#1b263b"/>
    <path d="M116.31265,104.73047c-1.41504,0-2.73047-.30371-3.9458-.91113-1.21582-.6084-2.27148-1.42969-3.16846-2.4668-.89697-1.03516-1.58936-2.19141-2.07764-3.4668s-.73242-2.59082-.73242-3.94629c0-1.43457.24414-2.79492.73242-4.08008s1.17041-2.42578,2.04785-3.42285c.87646-.99609,1.91309-1.78369,3.10889-2.36182,1.19531-.57764,2.50049-.8667,3.91553-.8667,2.09277,0,3.79688.42871,5.1123,1.28516,1.31543.85742,2.31152,1.97363,2.98926,3.34863l-1.61426,1.07617c-.67773-1.31543-1.58398-2.28223-2.7207-2.90039-1.13574-.61719-2.40137-.92676-3.79639-.92676-1.17578,0-2.2373.25-3.18359.74805-.94678.49805-1.75879,1.16602-2.43604,2.00293-.67773.83691-1.19092,1.7832-1.53955,2.83984-.34912,1.05566-.52295,2.15137-.52295,3.28809,0,1.19531.19873,2.32617.59766,3.39258.39844,1.06641.96631,2.0127,1.7041,2.83984.73682.82715,1.58887,1.47461,2.55566,1.94336.96631.46777,2.00732.70215,3.12354.70215,1.29541,0,2.521-.32422,3.67725-.97168,1.15527-.64746,2.26172-1.64844,3.31836-3.00391v2.21191c-2.01367,2.43164-4.39453,3.64648-7.14502,3.64648ZM123.12857,95.7627h-4.72314v-1.61426h6.48682v10.43262h-1.76367v-8.81836Z" fill="#1b263b"/>
    <path d="M129.19693,104.58105v-21.22363h2.0918v21.22363h-2.0918Z" fill="#1b263b"/>
    <path d="M145.15884,104.73047c-1.49414,0-2.84961-.29883-4.06543-.89648s-2.26172-1.40918-3.13867-2.43652c-.87695-1.02637-1.55469-2.18164-2.03223-3.4668-.47852-1.28613-.71777-2.60547-.71777-3.96094,0-1.41504.24902-2.76562.74707-4.05078s1.2002-2.43066,2.10742-3.4375c.90625-1.00586,1.96777-1.80371,3.18359-2.3916s2.53027-.88184,3.94629-.88184c1.49414,0,2.84961.30908,4.06543.92627,1.21484.61816,2.25684,1.4458,3.12305,2.48193.86719,1.03613,1.54004,2.19238,2.01855,3.4668.47754,1.27637.7168,2.58105.7168,3.91602,0,1.41504-.24902,2.76562-.74707,4.05078s-1.19531,2.43164-2.09277,3.4375c-.89648,1.00684-1.95312,1.79883-3.16797,2.37695-1.21582.57812-2.53125.86621-3.94629.86621ZM137.29751,93.96973c0,1.15527.18848,2.2666.56738,3.33301s.91699,2.0127,1.61426,2.83984,1.5293,1.48438,2.49609,1.97266,2.02734.73242,3.18359.73242c1.21582,0,2.30664-.25391,3.27344-.7627.96582-.50781,1.79297-1.18555,2.48047-2.03223.68848-.84668,1.21094-1.79883,1.57031-2.85449.3584-1.05664.53711-2.13281.53711-3.22852,0-1.15625-.18945-2.26172-.56738-3.31836-.37891-1.05566-.92188-2.00293-1.62891-2.83984-.70801-.83691-1.54004-1.49512-2.49609-1.97266-.95703-.47852-2.01367-.71777-3.16895-.71777-1.19531,0-2.27734.24902-3.24316.74707-.9668.49902-1.79395,1.1709-2.48145,2.01855-.6875.84668-1.21582,1.79785-1.58398,2.85449-.36914,1.05664-.55273,2.13281-.55273,3.22852Z" fill="#1b263b"/>
    <path d="M161.15103,87.21387v17.36719h-2.09277v-21.22363h1.7334l13.93066,17.69629v-17.6665h2.0918v21.19385h-1.94238l-13.7207-17.36719Z" fill="#1b263b"/>
  </g>
</svg>